<?xml version="1.0" encoding="UTF-8" standalone="no"?>
<svg
   version="1.1"
   id="Layer_1"
   x="0px"
   y="0px"
   viewBox="0 0 1938 1669.103"
   enable-background="new 0 0 1938 1669.103"
   xml:space="preserve"
   xmlns="http://www.w3.org/2000/svg"
   xmlns:svg="http://www.w3.org/2000/svg"><defs
   id="defs15" />
<g
   id="g15">
	<path
   fill="#201e1e"
   d="m 775.274,34.551 c 8.131,0 16.079,0.653 25.916,4.358 6.072,2.354 14.602,1.949 24.584,18.059 0.054,7.555 -0.039,15.187 -2.028,22.541 20.002,11.727 40.941,21.86 62.707,29.856 48.77,18.443 33.898,12.199 46.738,13.995 21.499,2.516 16.125,2.736 35.367,18.477 1.81,1.573 -0.672,0.568 46.901,9.56 2.5,-2.632 4.954,-5.318 7.439,-7.965 2.065,-2.248 16.71,-9.343 24.987,-10.45 9.717,-1.382 17.992,4.888 30.607,13.19 -0.248,6.92 -0.534,13.848 -0.782,20.768 83.77,41.773 92.822,28.951 92.145,57.97 -1.064,26.159 -21.217,25.545 -34.771,26.636 116.423,21.553 260.519,104.683 287.195,251.619 60.188,-57.671 218.378,-69.945 309.728,39.431 46.119,44.506 53.387,43.979 65.308,107.448 -6.262,5.271 -12.463,10.612 -18.794,15.783 49.837,61.392 57.181,113.433 60.153,195.568 7.384,-3.135 14.002,-10.862 32.875,-0.147 35.1,20.128 30.346,63.441 11.921,94.676 -5.718,8.676 -0.183,4.034 -30.026,23.919 49.656,18.894 27.289,56.561 1.726,102.781 -2.949,4.892 -5.542,10.195 -9.699,14.181 -30.153,16.477 -245.7,82.541 -261.852,83.901 -34.694,1.796 -69.395,3.568 -104.089,5.357 -1.27,2.957 -2.508,5.922 -3.723,8.902 145.528,-5.592 79.648,5.918 276.002,-50.64 -87.881,163.715 -276.332,192.833 -339.476,73.684 -11.565,3.019 -23.121,6.076 -34.678,9.111 15.295,45.027 30.669,90.024 45.995,135.036 44.92,9.105 22.193,4.414 39.865,2.849 3.986,0.58 7.888,1.656 11.851,2.438 -0.271,4.699 -0.542,9.397 -0.821,14.104 -20.141,5.457 -40.282,10.891 -60.431,16.325 -7.95,-4.25 -15.923,-8.445 -23.841,-12.741 -12.563,-51.986 -25.173,-103.965 -37.767,-155.952 -1.003,0.145 -201.695,23.779 -255.001,21.387 -68.161,-2.901 -133.686,-22.921 -165.124,-83.429 -40.715,5.941 -79.659,0.643 -95.388,-6.626 -23.988,-10.898 -43.418,-36.371 -54.858,-59.975 -70.951,-21.269 -86.741,-51.166 -105.002,-123.572 -28.466,54.234 -49.088,189.94 -219.301,451.406 -17.138,26.194 -34.91,52.01 -54.061,76.78 -139.136,180.082 -299.319,162.759 -348.517,6.046 -57.355,-182.911 54.819,-498.27 213.836,-696.468 77.149,-97.259 146.238,-129.094 226.562,-157.647 44.021,-77.755 87.957,-155.565 131.932,-233.343 -10.179,-10.93 -20.435,-21.79 -30.583,-32.751 -19.665,-23.253 -54.224,-87.751 -22.734,-165.798 -54.731,36.312 -68.7,-39.987 -24.77,-35.584 12.166,0.03 5.529,6.475 25.792,-45.507 -16.93,-6.528 8.906,-5.515 -83.886,-5.14 -1.153,1.827 -2.276,3.677 -3.344,5.558 -1.023,-0.035 -30.455,-1.163 -32.751,-2.57 -25.006,-13.84 -7.796,-55.451 43.023,-47.698 1.06,1.517 2.113,3.042 3.166,4.567 28.749,0.851 57.506,1.68 86.254,2.554 8.995,-25.368 33.241,-13.7 38.951,-19.746 14.235,-16.989 9.072,-18.121 39.733,-19.793 13.39,22.163 12.634,21.606 14.591,22.231 10.38,4.257 20.73,8.584 31.11,12.857 35.19,-56.646 48.811,-61.046 63.138,-62.367 m -47.094,67.538 c 3.05,0.534 6.107,1.045 9.157,1.61 -31.695,57.916 -19.081,36.932 -32.364,53.333 2.431,0.813 4.869,1.602 7.292,2.462 -38.946,-3.33 -74.348,8.71 -104.043,32.186 -40.9,50.524 -44.329,129.197 -4.079,183.795 66.95,91.226 205.717,56.163 240.852,-5.225 17.148,-31.819 23.679,-82.157 24.135,-87.214 2.529,-20.508 -4.176,-12.141 34.717,-27.092 -17.596,-11.339 -22.191,-22.798 -10.194,-46.847 -15.118,-10.899 -30.235,-21.806 -45.368,-32.689 -6.352,10.705 -6.505,13.726 -12.47,13.492 -13.152,-0.393 -35.425,-16.485 -52.606,-24.492 -9.235,-3.212 -18.771,-5.542 -28.238,-7.957 3.483,-8.337 7.183,-16.581 10.891,-24.824 -1.61,-0.898 -3.22,-1.796 -4.83,-2.678 -4.459,8.608 -8.925,17.223 -13.391,25.823 -5.519,-1.122 -11.069,-2.167 -16.697,-2.547 7.895,-14.723 15.76,-29.469 23.663,-44.199 81.115,46.162 52.932,33.153 113.401,52.869 60.962,19.472 56.019,19.68 76.207,18.438 4.163,-0.728 6.767,0.14 2.833,-11.719 -4.853,-0.712 -9.722,-1.277 -14.576,-1.927 0.48,-7.276 1.153,-14.537 1.54,-21.821 -8.228,-5.542 -16.039,-11.735 -24.6,-16.759 -1.463,1.742 -2.415,3.878 -4.025,5.488 -2.361,0.196 -67.322,-20.722 -69.821,-22.123 -15.799,-8.793 -31.628,-17.54 -47.427,-26.334 1.424,-2.678 2.864,-5.357 4.281,-8.035 -1.695,-1.254 -3.383,-2.5 -5.078,-3.739 0.944,-3.328 1.966,-6.626 2.934,-9.947 -6.425,-4.822 -13.879,-7.857 -21.055,-11.309 -13.678,16.665 -27.495,33.214 -41.041,49.981 m 301.306,46.614 c -83.932,171.631 -68.185,138.855 -87.501,190.165 -22.1,4.745 -44.184,9.575 -66.284,14.328 -3.445,7.795 -6.812,15.621 -10.218,23.423 54.167,12.078 58.919,7.344 48.248,33.068 -8.043,17.734 -19.236,33.773 -30.227,49.757 5.488,1.711 10.899,3.677 16.333,5.566 19.15,-25.962 38.27,-51.932 57.42,-77.887 23.416,14.97 46.785,30.011 70.208,44.966 18.036,56.201 54.631,7.652 43.247,-12.401 -7.665,-13.601 -28.836,-6.485 -34.074,-5.883 -46.743,-34.898 -43.906,-31.501 -55.578,-42.272 -1.161,-6.494 -1.788,-13.105 -2.717,-19.654 -0.391,-1.182 -0.923,-0.166 16.232,-24.283 -3.94,-8.677 -7.957,-17.316 -11.921,-25.978 16.286,-31.141 32.426,-62.367 48.41,-93.662 3.127,1.61 6.255,3.228 9.382,4.853 -4.583,10.636 -9.583,21.124 -13.322,32.093 9.172,4.737 44.132,26.32 52.381,31.45 -4.126,6.278 -8.43,12.439 -12.385,18.825 4.809,17.116 3.26,12.705 3.746,28.478 9.784,-1.37 19.553,-2.887 29.345,-4.195 144.441,121.021 167.507,141.409 192.689,155.425 -0.147,7.16 -3.042,13.91 -5.062,20.699 4.435,3.042 8.871,6.1 13.314,9.142 1.559,-29.121 17.935,-49.638 49.331,-40.708 -11.972,-8.481 -28.544,-27.142 -54.502,-2.082 -32.145,-19.644 -30.271,-19.125 -33.393,-21.991 -132.629,-119.664 -102.875,-92.204 -128.209,-117.991 7.501,-5.836 14.994,-11.681 22.51,-17.502 13.794,8.445 27.542,16.975 41.359,25.374 -22.788,-29.091 -12.141,-18.948 -48.821,-45.151 -9.227,7.694 -18.438,15.412 -27.673,23.106 -4.706,-5.148 -9.513,-10.194 -14.15,-15.396 4.172,-6.146 8.236,-12.362 12.346,-18.554 -4.389,-1.502 -8.778,-3.019 -13.167,-4.513 -1.78,2.748 -3.537,5.511 -5.318,8.267 -19.685,-12.749 -39.323,-25.56 -59.015,-38.293 6.487,-11.309 13.105,-22.541 19.654,-33.811 25.939,15.334 57.359,21.867 87.168,16.844 -2.067,-5.055 -3.909,-10.21 -6.092,-15.21 -29.37,-16.939 -52.694,-12.482 -77.484,-17.037 -1.13,-3.042 -2.957,-5.937 -3.63,-9.08 2.353,-6.789 5.008,-13.484 7.47,-20.242 -19.137,-17.132 -16.835,-11.69 -40.05,-12.053 m 27.03,92.122 c 8.778,0.673 17.54,1.564 26.287,2.531 -7.137,-3.832 -14.506,-7.191 -21.852,-10.574 -1.493,2.679 -2.972,5.357 -4.435,8.043 m 10.373,6.603 c 33.109,15.967 44.519,18.731 83.305,21.643 19.267,14.862 38.224,30.181 57.397,45.19 -3.494,15.023 -3.086,4.004 10.775,26.009 -2.082,5.31 -4.18,10.612 -6.216,15.938 8.476,6.045 16.681,12.517 25.312,18.33 176.644,57.202 159.309,106.529 176.968,133.264 0.783,-11.144 -9.279,-46.443 -12.23,-56.724 -18.41,-55.66 -150.641,-199.487 -335.311,-203.65 m -60.347,64.991 c 38.104,32.397 76.766,65.703 85.535,68.853 -3.037,-7.713 -33.966,-37.656 -39.903,-47.466 -2.851,-13.014 1.525,-18.204 -31.915,-39.71 -4.567,6.108 -9.157,12.208 -13.717,18.323 m -18.399,50.407 c 17.641,9.266 35.259,18.585 52.931,27.789 1.16,0.193 26.204,-1.859 43.781,13.353 5.488,4.768 9.289,11.766 9.119,19.158 -1.629,81.582 -94.833,58.31 -85.929,9.66 -15.28,-5.14 -30.622,-10.109 -45.933,-15.141 -2.353,3.39 -4.784,6.719 -7.052,10.164 8.49,22.16 9.309,25.353 8.677,28.834 -5.694,0.458 -13.963,-12.24 -16.921,-17.115 -12.207,17.463 -24.337,34.972 -36.521,52.451 20.044,127.859 331.092,72.683 424.135,68.451 0.163,2.005 0.341,4.017 0.511,6.03 -127.255,9.833 -335.344,28.345 -398.847,19.507 -38.381,-4.979 -58.679,-48.642 -65.796,-86.402 -4.118,-0.658 -8.213,-1.463 -12.331,-2.09 -3.378,37.813 9.394,75.817 44.238,92.23 65.517,31.511 360.377,-16.294 452.281,-12.834 17.409,0.526 34.616,3.421 51.901,5.271 10.088,-107.568 -29.284,-117.606 -63.598,-130.214 6.827,5.039 13.701,10.016 20.521,15.071 -1.698,19.641 -12.409,37.326 -33.285,47.853 -12.622,5.989 -14.239,2.562 -30.521,-2.856 -3.592,-0.116 -7.16,0.921 -10.736,1.239 -35.886,-32.643 -71.663,-65.409 -107.603,-97.982 -23.127,-4.455 -31.946,0.879 -37.395,6.951 -6.348,6.692 -9.327,18.1 -15.783,15.249 -4.482,-1.842 -7.563,-5.782 -10.961,-9.049 -54.11,-54.593 -69.495,-65.185 -118.734,-82.09 -3.399,5.489 -6.774,11.001 -10.149,16.512 m -290.655,96.372 c -36.389,63.876 -72.77,127.76 -109.19,191.621 -17.285,0.356 -34.601,4.211 -49.989,12.215 17.78,-2.818 35.987,-2.818 53.759,0.07 3.938,0.611 71.515,33.04 89.908,104.492 12.037,-20.908 24.313,-41.684 36.257,-62.645 -5.047,-6.309 -9.993,-12.695 -14.94,-19.089 12.71,-24.012 25.366,-48.046 38.046,-72.073 -53.864,-36.021 -38.87,-137.979 -2.214,-131.491 -10.629,-9.637 -31.046,-20.516 -41.637,-23.1 m 806.819,12.284 c -23.833,5.946 -53.857,17.796 -69.666,35.886 97.935,-67.656 201.384,-30.587 200.476,43.449 -0.17,11.58 -4.389,23.601 -13.484,31.164 -17.659,14.94 -30.581,11.445 -164.474,9.01 -0.356,11.131 -0.697,22.27 -1.022,33.417 328.752,23.311 230.253,-1.404 273.819,-3.553 3.948,-0.217 7.764,1.239 11.092,3.274 -5.918,1.708 -21.251,2.134 -23.214,16.464 -2.996,21.383 65.417,24.835 66.268,-10.071 -20.578,-80.918 -137.818,-97.8 -142.15,-48.07 -1.32,9.083 -0.144,13.348 -18.268,19.336 -10.04,3.423 -18.726,-0.118 -19.29,-3.607 0.426,-1.726 2.609,-1.44 3.979,-1.68 33.992,-1.954 33.56,-51.53 30.452,-65.641 -10.57,-50.765 -83.881,-72.39 -134.518,-59.378 m -11.681,12.563 c 39.787,0.085 79.938,11.472 112.681,34.345 -26.059,-10.094 -73.979,-28.33 -102.146,-29.097 -12.083,0.352 -35.627,3.514 -42.318,10.806 47.286,5.502 109.374,15.039 148.25,42.094 -43.613,-16.15 -123.534,-44.254 -168.236,-30.181 26.906,48.633 4.892,56.312 41.258,60.377 29.411,2.803 89.165,4.915 118.487,0.147 29.839,-4.362 49.59,-56.298 -19.545,-88.77 -15.26,-7.106 -35.71,-14.371 -88.431,0.279 m -251.642,143.079 c -90.901,43.102 -90.45,44.277 -91.688,53.496 11.874,6.316 23.617,12.904 35.491,19.236 23.139,-38.835 46.662,-51.227 78.313,-52.846 3.081,0.062 6.417,-0.511 9.289,0.906 -7.265,4.826 -46.115,20.403 -63.621,40.917 5.798,5.612 8.019,13.949 7.725,21.829 4.304,0.503 8.592,1.239 12.749,2.523 5.086,-6.115 10.721,-11.874 17.331,-16.348 12.756,-8.459 32.691,-11.18 40.809,-9.211 -9.927,6.076 -38.299,17.032 -51.197,33.773 -2.076,16.349 -4.458,28.303 -2.407,30.816 8.569,2.526 53.339,-14.926 76.795,-34.338 -11.973,-40.583 -0.415,-11.764 -13.345,-52.412 -1.2,-4.482 -5.148,-7.493 -6.982,-11.611 -0.604,-4.962 -0.851,-9.978 -1.331,-14.955 -6.734,-6.061 -13.515,-12.083 -20.265,-18.129 -9.212,2.166 -18.531,3.916 -27.666,6.354 m 197.651,41.072 c 16.989,-4.592 44.342,-12.319 53.14,-13.306 -8.623,4.666 -31.391,10.899 -42.256,16.704 0.638,6.749 7.441,14.683 12.029,22.688 24.068,-13.183 143.086,-28.384 164.946,-12.989 3.607,7.524 6.657,15.319 10.303,22.843 4.675,-4.793 0,-13.903 -2.779,-20.172 -14.328,-29.986 -23.18,-29.113 -36.11,-31.11 -10.527,-1.215 -21.093,-2.384 -31.69,-2.531 8.035,-1.324 16.232,-1.463 24.337,-2.338 -46.834,-8.883 -102.339,-2.88 -151.92,20.211 m 220.045,-16.24 c -0.596,3.228 -1.161,6.456 -1.742,9.691 -6.07,1.668 -12.474,4.38 -10.032,10.218 5.19,10.115 44.742,-7.899 43.147,19.089 -0.981,17.156 0.534,42.974 -10.016,48.488 -10.414,5.425 -27.099,5.822 -32.232,3.344 -1.199,-3.007 -1.95,-16.391 -0.217,-21.86 1.309,-4.611 3.032,-3.834 20.869,-1.548 -1.123,-3.058 -2.229,-6.115 -3.359,-9.157 -9.637,-1.231 -19.948,-1.827 -29.059,2.136 -6.252,1.937 -1.915,17.767 -2.694,35.096 -2.396,53.58 -4.867,58.208 -3.29,63.474 2.807,11.979 18.426,1.305 27.704,-6.928 -3.491,-2.191 -6.982,-4.374 -10.473,-6.541 0.01,-5.171 0.078,-10.342 0.116,-15.505 2.787,1.208 5.573,2.431 8.368,3.654 0.17,3.29 -0.217,6.827 1.517,9.807 8.337,-1.827 16.704,-3.53 25.095,-5.155 -0.302,3.212 -0.279,6.456 -0.736,9.66 -7.671,12.249 -18.583,10.874 -27.015,14.142 -0.067,2.339 -0.996,10.423 3.282,9.668 6.889,-0.395 13.871,-1.881 19.948,-5.287 4.949,-2.524 5.764,1.835 5.403,4.776 -4.269,10.272 -11.781,10.527 -28.277,10.527 -8.259,27.248 -0.134,12.994 19.801,14.227 -8.316,9.746 -20.951,8.285 -24.739,16.457 7.168,1.68 14.684,-2.98 21.867,-0.712 -2.013,6 -18.361,6.079 -21.604,10.612 3.243,3.398 8.422,2.972 12.718,3.716 -1.343,13.425 -0.733,16.837 0.89,18.818 6.464,-1.347 12.865,-3.019 19.274,-4.652 -0.627,-5.357 -1.3,-10.698 -1.92,-16.054 21.391,-21.507 4.712,-66.735 9.204,-93.848 1.687,-6.076 1.269,-12.424 1.734,-18.64 -1.3,-1.192 -2.585,-2.376 -3.863,-3.561 5.362,-24.713 2.287,-4.326 6.494,-69.209 0.178,-4.366 1.339,-8.902 -0.457,-13.09 -1.912,-4.908 -3.777,-10.38 -7.965,-13.794 -3.808,-0.759 -7.694,-0.96 -11.51,-1.626 -1.463,-3.994 -1.943,-9.699 -6.254,-11.611 -3.073,1.705 -6.594,2.548 -9.977,1.178 m -286.336,16.449 c -3.476,0.79 -5.991,3.452 -8.855,5.364 6.068,12.338 8.772,35.594 15.768,35.437 7.623,-1.383 7.775,-31.477 16.952,-31.319 4.892,-0.155 9.885,-1.091 14.738,0.016 11.083,2.473 4.023,16.817 5.976,23.795 1.244,4.764 6.217,1.354 9.312,-2.523 4.451,-5.836 5.039,-13.515 5.333,-20.582 -0.227,-26.576 -6.084,-25.804 -59.224,-10.188 m -864.766,15.358 c -7.013,2.059 -13.639,5.581 -20.985,6.347 -6.076,1.246 -11.371,4.722 -17.2,6.703 -10.759,3.647 -14.541,14.583 -32.24,19.708 -2.843,0.682 -3.197,2.246 -29.306,20.985 -12.934,9.354 -24.018,29.924 -30.057,38.045 -7.354,8.971 -17.78,14.638 -26.009,22.703 -0.188,0.191 -27.691,28.577 -28.517,29.577 -1.951,2.013 -1.649,5.163 -3.576,7.191 -16.457,19.793 -33.37,39.207 -49.819,58.999 1.001,-0.762 41.685,-26.364 55.284,-50.353 6.664,-11.374 15.087,-13.602 25.235,-22.046 12.017,-10.252 9.602,-15.105 25.56,-32.41 2.028,-2.578 5.674,-2.926 7.671,-5.504 25.308,-30.328 25.545,-31.826 30.684,-35.228 5.055,-3.646 11.464,-5.039 16.054,-9.374 3.568,-3.313 7.772,-5.821 11.959,-8.259 21.931,-12.737 17.737,-13.651 23.183,-18.523 3.166,-3.003 7.323,-4.536 10.852,-7.013 8.408,-5.849 10.51,-2.732 17.564,-4.188 17.703,-7.114 35.499,-14.042 53.179,-21.24 -4.861,-1.246 -9.629,-2.903 -14.537,-3.925 -8.724,1.124 -16.627,5.297 -24.979,7.805 m -63.11,10.589 c -66.696,31.711 -144.988,125.502 -185.56,181.496 24.739,-19.94 21.357,-22.719 36.327,-40.499 8.042,-9.563 16.873,-5.748 29.136,-29.631 4.121,-8.294 40.134,-37.274 58.69,-57.436 4.164,-4.333 2.887,-4.649 27.263,-27.193 5.895,-2.58 11.086,-2.227 30.692,-17.115 14.404,-10.717 12.599,-6.595 24.066,-13.059 3.926,-2.113 1.339,-4.787 25.691,-11.441 -16.155,2.183 -31.59,8.035 -46.305,14.878 m 686.018,-1.804 c 0.372,6.642 4.745,12.13 7.625,17.896 0.198,29.343 -5.109,31.359 -10.775,43.255 5.256,4.306 19.757,5.645 29.6,3.747 13.748,-2.317 12.853,-36.692 12.153,-50.578 -4.157,-1.308 -8.476,-2.113 -12.532,-3.677 -26.077,-19.369 -16.422,-16.342 -26.071,-10.643 m -601.018,9.413 c -9.111,3.197 -17.618,8.197 -27.24,9.869 -19.079,7.467 -22.804,15.038 -32.163,10.698 -13.643,16.793 -16.743,26.019 -21.999,27.193 -3.383,-0.294 -7.044,-1.293 -10.133,0.697 -7.795,4.699 -12.284,13.089 -19.267,18.756 -11.685,9.288 -3.457,11.903 -33.757,33.471 -22.686,18.766 -73.982,87.049 -86.487,103.772 8.267,-9.01 16.844,-17.958 23.075,-28.548 5.732,-7.839 22.257,-15.558 32.681,-26.117 9.87,-9.906 20.005,-13.673 26.907,-20.404 8.573,-8.22 14.032,-5.656 14.003,-23.841 6.82,-1.912 13.662,-3.762 20.482,-5.674 6.123,-17.242 4.397,-14.196 6.998,-15.381 5.535,-1.873 11.015,-3.917 16.565,-5.736 -0.325,-3.777 -1.548,-7.385 -2.988,-10.86 3.108,-2.819 7.599,-1.874 14.614,-1.602 13.219,-22.428 6.352,-6.795 19.669,-20.877 3.073,-3.924 8.112,-5.264 11.983,-8.197 31.858,-23.231 22.97,-13.485 41.823,-24.731 3.39,-1.92 5.504,-5.442 8.971,-7.238 4.342,-2.5 8.67,-5.039 12.989,-7.586 -5.571,0.78 -11.183,1.376 -16.726,2.336 m 1.169,25.033 c -2.338,2.849 -4.335,5.96 -6.611,8.871 -14.417,2.616 -13.84,2.306 -15.164,3.545 -13.105,10.854 -9.012,3.798 -18.864,12.873 -2.655,2.523 -6.533,3.112 -9.42,5.248 -15.205,22.409 -15.451,25.174 -42.566,32.325 -11.62,23.906 -9.895,15.976 -23.307,27.967 -3.522,6.022 -6.703,12.246 -10.055,18.376 20.145,-15.959 119.65,-94.881 139.812,-109.353 -1.014,-2.136 -2.02,-4.273 -3.027,-6.401 -3.576,2.215 -7.369,4.103 -10.798,6.549 m 782.638,5.62 c -10.115,5.203 -101.52,51.793 -104.391,60.563 10.276,1.508 37.845,-12.355 62.111,-23.756 41.953,-19.644 61.301,-21.62 68.064,-42.357 -3.212,-1.269 -6.417,-2.531 -9.606,-3.832 -5.426,3.066 -10.729,6.356 -16.178,9.382 m -580.064,-8.368 c -26.545,44.342 -52.678,86.432 -63.226,110.258 -2.434,27.743 11.978,-8.301 -71.238,159.094 3.476,1.409 6.494,3.824 8.329,7.137 40.019,-83.491 85.155,-164.389 126.135,-247.4 3.948,3.104 8.399,5.62 13.252,6.982 -46.08,87.005 -92.3,173.949 -138.256,261.008 -3.883,23.89 -13.56,63.87 -30.769,80.836 -6.409,6.579 -28.313,12.929 -41.382,13.446 -10.705,19.685 -21.403,39.377 -32.085,59.069 0.619,4.513 1.269,9.026 1.889,13.546 -6.347,0.882 -12.718,1.579 -19.05,2.562 -4.134,11.719 -8.484,23.361 -12.71,35.058 9.667,22.105 21.162,34.223 35.243,14.769 5.558,-7.988 8.058,-17.509 11.085,-26.62 3.173,-8.365 -1.35,1.581 16.774,-23.013 8.927,-3.918 9.418,-2.02 11.874,-5.705 242.305,-454.265 71.49,-167.536 229.774,-437.643 -13.717,-0.321 -34.614,-13.412 -45.639,-23.384 m 70.2,43.844 c -23.232,55.916 -19.737,120.134 -9.568,154.79 2.584,-43.73 2.709,-106.824 23.005,-141.453 -4.473,-4.451 -8.947,-8.902 -13.437,-13.337 m 281.784,28.88 c -9.56,20.191 -2.507,8.12 -12.447,19.406 -88.795,94.195 -37.802,344.316 87.346,394.938 57.048,23.563 157.876,-1.012 216.151,-20.846 -5.318,-5.24 -10.69,-10.427 -15.992,-15.675 -34.108,13.202 -80.852,22.608 -89.761,20.892 2.119,-3.811 19.718,-9.757 34.725,-15.164 -68.418,11.659 -76.407,12.274 -141.167,11.34 5.96,3.824 11.959,7.586 17.904,11.448 -78.182,-14.053 -166.787,-142 -95.164,-358.742 -8.107,7.544 -24.439,33.809 -30.537,56.716 -1.37,3.096 -1.811,7.462 -5.163,9.072 -1.435,-5.781 -1.806,-57.074 40.259,-87.888 16.081,20.533 17.219,16.127 11.572,-5.388 -0.401,-2.259 -0.359,-1.877 -17.726,-20.109 m 269.988,23.934 c -3.29,2.709 -7.261,5.248 -8.793,9.42 -0.266,3.014 9.822,7.87 22.278,-2.152 10.643,-9.103 21.418,-18.059 32.217,-26.976 -1.718,-1.595 -3.452,-3.158 -5.194,-4.706 -13.896,7.447 -27.759,15.102 -40.508,24.414 M 949.168,808.148 c -71.192,61.172 -69.253,381.283 135.152,410.814 16.062,2.609 32.379,2.028 48.588,1.927 0.418,-7.102 -26.164,-4.198 -70.773,-20.033 -8.491,-14.831 -16.844,-29.74 -25.428,-44.509 -14.227,0.797 -28.447,1.533 -42.674,2.144 -62.162,-71.729 -88.852,-270.797 -36.041,-350.576 -1.471,-2.972 -2.849,-5.984 -4.412,-8.902 -1.563,2.996 -2.74,6.193 -4.412,9.135 m 477.81,-4.9 c -18.372,22.027 -31.788,30.971 -24.538,54.912 4.318,15.679 26.62,-34.164 34.098,-49.463 -3.19,-1.826 -6.348,-3.692 -9.56,-5.449 m -934.82,63.497 c -58.346,23.746 -144.893,157.719 -177.417,214.998 12.083,-6.471 24.948,-11.735 38.456,-14.336 13.851,-2.312 27.326,-6.786 45.554,44.447 2.033,6.552 1.484,-3.017 -5.457,44.741 11.247,-21.287 21.898,-42.914 34.028,-63.721 7.114,-12.002 27.472,-43.708 27.487,-44.207 2.26,-29.035 4.528,-58.071 6.804,-87.106 22.193,-11.835 44.339,-23.756 66.562,-35.53 -6.785,-41.613 -5.729,-71.151 -36.017,-59.286 m 1346.903,3.762 c -121.769,67.863 -238.305,144.503 -357.333,216.94 0.054,2.345 0.124,4.691 0.209,7.052 45.506,26.404 28.617,17.005 45.252,20.42 52.884,-35.058 105.722,-70.193 158.63,-105.219 0.96,4.675 1.896,9.358 2.841,14.049 -153.083,98.168 -143.451,91.797 -144.666,93.136 40.332,7.413 -35.932,36.892 -75.023,52.404 104.919,28.834 308.594,-145.495 388.195,-123.309 21.978,-33.27 11.036,-50.482 -15.621,-51.236 -150.566,83.689 -147.198,82.538 -160.046,85.852 88.337,-59.528 187.3,-123.003 196.621,-137.807 17.955,-31.165 2.329,-72.256 -26.612,-74.202 -4.18,-0.124 -8.817,-0.542 -12.447,1.92 m -564.234,9.606 c -2.655,8.027 -5.302,16.062 -7.942,24.104 16.163,-2.098 32.317,-4.296 48.472,-6.479 -9.914,-13.35 -7.798,-13.824 -40.53,-17.625 m -551.439,17.084 c -15.774,38.313 -18.271,41.746 -18.887,49.889 -3.027,28.447 7.47,57.235 25.289,79.234 1.151,-26.483 -5.35,-41.258 1.362,-72.197 -0.78,-41.35 -3.765,-37.125 -7.764,-56.926 m 581.759,18.484 c -56.651,12.931 -33.844,1.841 -98.4,31.419 8.77,0.828 17.587,1.053 26.373,1.664 -44.122,43.043 -13.613,50.911 -55.632,44.88 -1.509,-5.001 -3.058,-9.986 -4.567,-14.978 -61.499,36.416 -38.973,148.603 -13.608,137.862 -1.876,-6.856 -2.938,-29.492 -3.15,-36.405 2.833,-3.537 6.363,-6.502 9.475,-9.815 45.043,-43.89 23.683,-13.925 56.012,-6.324 9.803,-51.563 31.345,-84.123 85.55,-104.971 3.112,1.602 6.224,3.22 9.359,4.799 -73.314,17.771 -152.146,181.719 -20.652,208.836 -50.537,-30.612 -48.517,-82.638 -24.925,-103.64 -3.755,45.342 -1.028,53.646 32.557,97.927 6.27,3.096 13.097,5.171 19.924,6.711 12.635,2.157 13.575,5.009 38.309,-47.969 19.268,15.873 18.588,28.649 20.559,53.14 19.392,-1.809 42.136,-31.058 67.019,-45.809 2.972,1.393 5.697,3.561 8.871,4.381 19.383,-0.906 38.773,-1.78 58.148,-2.856 -34.275,-13.081 -84.542,-5.788 -81.424,-35.855 -31.433,23.284 -22.936,17.958 -37.457,22.177 -23.295,5.164 -21.15,2.702 -22.456,-0.813 -3.557,-11.006 -12.707,-7.084 23.71,-19.561 -7.083,-5.836 -14.529,-11.278 -21.403,-17.316 -1.232,-6.263 -5.381,-27.33 -0.55,-28.447 4.683,-1.78 9.343,-4.962 14.552,-4.242 3.344,1.548 5.449,4.823 7.934,7.439 4.691,5.906 10.907,10.411 15.218,16.658 4.875,-18.856 10.903,-46.946 10.241,-66.33 -1.655,-21.324 -11.613,-48.222 -17.177,-56.135 -0.765,-1.455 2.547,-1.572 -68.095,2.268 -22.334,-39.027 -12.815,-24.495 -17.223,-36.103 -0.867,-2.438 -1.595,-5.302 -3.994,-6.68 -4.049,2.223 -8.67,2.997 -13.098,4.088 m -562.283,65.192 c -2.059,7.957 -3.971,16.093 -3.553,24.375 0.287,13.09 9.053,31.478 13.608,36.776 -12.465,-52.159 -4.383,-40.978 -10.055,-61.151 m 990.204,131.089 c -72.476,23.042 -85.599,10.464 -134.866,52.969 38.247,-14.72 34.88,-12.085 209.927,-65.842 18.172,-5.713 37.926,-24.672 39.261,-28.269 2.059,-3.855 2.578,-8.344 5.163,-11.936 -38.138,21.186 -77.763,40.081 -119.485,53.078 M 246.98,1433.843 c 19.329,4.129 40.423,-8.41 54.34,-22.665 26.088,-26.654 24.426,-40.414 48.07,-165.395 -3.723,1.153 -7.299,2.88 -11.1,3.716 -8.879,-1.788 -17.688,-3.986 -26.566,-5.728 -38.786,17.799 -42.111,9.158 -46.258,-6.27 -3.638,-15.373 -4.335,-31.265 -4.343,-47.001 -26.487,63.336 -81.204,229.782 -14.143,243.343 z"
   id="path1"
   style="display:inline;fill:#ffffff" />
	<path
   fill="#201E1E"
   d="M730.471,155.592c4.915,1.525,9.769,3.274,14.514,5.271c-0.813,1.571-1.626,3.143-2.438,4.722   C738.482,162.296,734.48,158.944,730.471,155.592z"
   id="path2"
   style="fill:#ffffff" />
	<path
   fill="#201E1E"
   d="M750.953,168.001c0.403-1.277,0.828-2.547,1.246-3.816c101.049,48.14,98.096,192.951,4.66,242.655   c-67.381,30.425-130.992-6.652-150.525-78.274c2.616,1.006,5.38,1.564,8.182,1.765c-11.717-22.119-15.907-57.219-2.957-78.119   c13.536-22.185,43.605-37.672,48.65-36.056c-5.079,7.046-22.548,12.428-30.212,27.464c-6.309,12.001-1.315,22.264,3.127,22.765   c7.818-4.627,15.553-40.191,40.097-38.626c6.898,1.295-15.653,13.126-22.262,28.238c-2.161,5.587-6.086,17.53-0.139,18.547   c10.18,1.684,7.66-15.948,29.213-25.777c2.338-0.898,5.101-2.105,7.547-0.937c4.596,4.951-12.047,14.091-16.201,19.383   c-4.931,5.836-6.1,13.856-5.504,21.256c0.704,7.95,0.387,16.101,2.794,23.803c8.917-4.296,17.78-8.693,26.76-12.865   c4.34,6.616,14.716,18.986,22.649,19.754c-16.645,70.456-45.432,75.845-48.085,78.823c28.713,3.059,68.365-46.603,64.627-85.302   c-18.703-3.482-22.553-5.057-28.145-13.98c-5.073-8.588-0.899-22.585,3.824-31.327c6.383-11.552,13.43-10.94,17.479-12.757   c3.858-2.036-5.332-12.18-7.656-19.847c-6.37-16.008,61.616,24.792,34.051,84.165c-5.091,11.227,0.144,0.901-8.236,30.738   c-0.449,1.254-0.387,2.585,0,3.855c7.263-1.367,19.192-20.279,33.13-32.859c23.392-20.72,25.017-10.134,26.063,18.462   c24.064-62.604,7.158-130.87-50.322-165.434c0.813,0.24,2.431,0.735,3.243,0.983C755.821,172.312,753.569,169.944,750.953,168.001    M623.549,279.691c-12.056,10.057-3.257,33.411,5.883,48.286c6.007-1.904,12.068-3.692,17.951-5.968   c-10.91-14.008-9.658-36.017-17.734-42.458C627.899,278.081,625.197,278.104,623.549,279.691 M654.867,318.743   c2.694-1.208,5.38-2.438,8.05-3.716c-3.812-9.231-9.456-25.317-13.569-24.701C643.39,295.367,652.493,311.279,654.867,318.743z"
   id="path3"
   style="fill:#ffffff" />
	<path
   fill="#201E1E"
   d="M1646.813,751.718c2.701-0.511,5.434-0.952,8.159-1.386c0.24,2.438,0.511,4.877,0.782,7.323   c7.982,1.034,20.374-6.921,26.589-5.14c0.418,1.896-0.193,3.901-0.279,5.836c-8.135,3.197-16.519,5.728-25.15,7.114   c-0.364,4.281-0.766,8.561-1.13,12.842c-2.918-1.324-5.805-2.671-8.708-3.994C1646.937,766.782,1646.937,759.25,1646.813,751.718z"
   id="path4"
   style="fill:#ffffff" />
	<path
   fill="#201E1E"
   d="M1660.321,774.22c8.128,1.548,15.35-3.058,22.208-6.649c3.883,10.936-10.156,14.537-21.813,14.444   C1660.568,779.414,1660.445,776.813,1660.321,774.22z"
   id="path5"
   style="fill:#ffffff" />
	<path
   fill="#201E1E"
   d="M1706.827,1025.754c41.475-26.38,82.957-52.753,124.447-79.11c0.743,3.948,1.502,7.903,2.237,11.859   c-39.772,26.241-79.528,52.49-119.3,78.723C1711.727,1033.41,1709.288,1029.57,1706.827,1025.754z"
   id="path6"
   style="fill:#ffffff" />
	<path
   fill="#201E1E"
   d="M1302.283,1029.299c10.651-4.668,21.31-9.335,31.969-13.995c1.618,1.896,3.228,3.808,4.846,5.736   c-11.975,3.963-23.957,7.911-35.94,11.859C1302.848,1031.683,1302.554,1030.484,1302.283,1029.299z"
   id="path7"
   style="fill:#ffffff" />
	<path
   fill="#201E1E"
   d="M1348.665,1021.605c2.361,2.314,4.745,4.598,7.114,6.92c-9.162,3.852-69.97,29.88-77.159,35.297   c2.152-4.683,4.946-9.049,6.82-13.864C1292.228,1045.552,1327.457,1031.164,1348.665,1021.605z"
   id="path8"
   style="fill:#ffffff" />
	<path
   fill="#201E1E"
   d="M1284.185,1077.214c26.798-14.251,53.736-28.323,81.68-40.205c4.617,7.644-3.628,9.262-82.64,47.768   C1283.535,1082.245,1283.86,1079.722,1284.185,1077.214z"
   id="path9"
   style="fill:#ffffff" />
	<path
   fill="#201E1E"
   d="M1573.973,1111.482c39.849-24.313,79.745-48.557,119.671-72.747c1.27,3.251,2.547,6.502,3.816,9.769   c-39.4,23.826-78.761,47.714-118.2,71.47C1577.519,1117.117,1575.615,1114.377,1573.973,1111.482z"
   id="path10"
   style="fill:#ffffff" />
	<path
   fill="#201E1E"
   d="M1278.171,1091.604c28.478-13.678,56.971-27.325,85.465-40.979c0.341,2.105,0.666,4.211,0.999,6.332   c-28.292,14.583-56.561,29.206-84.861,43.758C1279.224,1097.673,1278.697,1094.631,1278.171,1091.604z"
   id="path11"
   style="fill:#ffffff" />
	<path
   fill="#201E1E"
   d="M1279.734,1107.271c27.89-14.429,55.779-28.865,83.692-43.247c0.596,2.02,1.208,4.056,1.819,6.092   c-27.626,14.622-55.261,29.244-82.895,43.851C1281.461,1111.73,1280.586,1109.5,1279.734,1107.271z"
   id="path12"
   style="fill:#ffffff" />
	<path
   fill="#201E1E"
   d="M1287.49,1119.478c26.225-13.987,52.459-27.944,78.692-41.908c0.286,3.011,0.557,6.022,0.851,9.041   c-17.454,17.52-53.149,31.277-76.718,40.941C1289.356,1124.858,1288.427,1122.164,1287.49,1119.478z"
   id="path13"
   style="fill:#ffffff" />
	<path
   fill="#201e1e"
   d="m 1295.247,1136.872 c 22.889,-11.673 45.84,-23.245 68.614,-35.135 -0.351,14.511 -52.399,37.701 -65.533,44.052 -1.1,-2.949 -2.075,-5.945 -3.081,-8.917 z"
   id="path14"
   style="display:inline;fill:#ffffff" />
	<path
   fill="#201e1e"
   d="m 1304.752,1155.418 c 15.241,-10.326 31.837,-18.469 47.404,-28.277 -1.37,4.18 -2.748,8.36 -4.118,12.548 -12.207,7.377 -24.631,14.444 -36.474,22.409 -3.336,-0.541 -5.14,-4.079 -6.812,-6.68 z"
   id="path15"
   style="display:inline;fill:#ffffff" />
</g>
</svg>
