<?xml version="1.0" encoding="UTF-8" standalone="no"?>
<svg
   class="shield-icon-right"
   viewBox="0 0 250000 250000"
   version="1.1"
   id="svg5"
   width="250000"
   height="250000"
   xmlns="http://www.w3.org/2000/svg"
   xmlns:svg="http://www.w3.org/2000/svg">
  <defs
     id="defs5" />
  <!-- Cazco-->
  <g
     transform="matrix(0.6,0,0,0.6,90,80)"
     id="g5"
     style="fill:#00aad4">
    <path
       d="m 279.77,52.07 c -16.85,0.07 -33.6,1.83 -49.67,4.75 -81.45,14.77 -129.81,58.37 -154.58,112.75 29.32,-2.43 104.28,-21.56 132.42,-21.37 22.65,0.15 7.67,11.16 29.12,16.44 14.23,3.5 16.68,19.24 19.45,34.34 2.77,15.09 0.81,32.93 -4.75,51.57 l -0.27,0.9 -0.44,0.83 c -7.29,13.64 -22.79,24.51 -42.54,36 -19.75,11.5 -43.85,22.7 -67.87,32.44 -24.02,9.74 -47.91,17.99 -67.22,23.44 -6.81,1.93 -13.01,3.48 -18.53,4.66 2.14,31.14 6.16,63.4 11.28,96.01 131.6,-38.26 256.87,-79.91 378.97,-123.29 24.36,-44.47 28.11,-86.48 15.94,-126.77 C 445.38,143.97 409.22,106.52 367.6,87.39 341.59,75.44 313.21,70.82 285.12,70.92 Z"
       fill="#fff"
       stroke="#ffffff"
       stroke-width="3.9"
       stroke-linecap="round"
       stroke-linejoin="round"
       id="path1"
       style="fill:#00aad4" />
    <path
       d="m 208.74,175.19 c -8.22,0 -15.11,6.25 -15.11,13.99 0,7.74 6.89,13.99 15.11,13.99 8.22,0 15.11,-6.25 15.11,-13.99 0,-7.74 -6.89,-13.99 -15.11,-13.99 z"
       fill="none"
       stroke="#ffffff"
       stroke-width="2"
       id="path2"
       style="fill:#00aad4" />
    <path
       d="m 208.74,184.13 c 3.23,0 5.62,2.27 5.62,5.04 0,2.77 -2.39,5.05 -5.62,5.05 -3.23,0 -5.62,-2.27 -5.62,-5.05 0,-2.78 2.39,-5.04 5.62,-5.04 z"
       fill="none"
       stroke="#ffffff"
       stroke-width="5"
       id="path3"
       style="fill:#00aad4" />
    <path
       d="m 70.05,452 c 0.4,2.38 250.92,-63.75 363.49,-105.07 4.02,-4.99 7.75,-9.95 11.26,-14.88 0,0 -244.78,82.61 -374.75,119.96 z"
       fill="#fff"
       id="path4"
       style="fill:#00aad4" />
    <path
       d="m 99.32,195.48 c -4.43,-1.53 -12.43,-6.16 -20.25,-3.61 -16.38,42.67 -19.21,84.94 -12.74,126.95 1.81,0.82 13.47,9.78 16.84,7.14 3.01,-1.41 -2.61,1.51 0.67,-0.13 -8.04,-44.76 -3.71,-88.21 15.49,-130.35 z"
       fill="#fff"
       id="path5"
       style="fill:#00aad4" />
  </g>
</svg>
