<?xml version="1.0" encoding="UTF-8" standalone="no"?>
<!-- Created with Inkscape (http://www.inkscape.org/) -->

<svg
   width="32"
   height="32"
   viewBox="0 0 32 32"
   version="1.1"
   id="svg1"
   xmlns="http://www.w3.org/2000/svg"
   xmlns:svg="http://www.w3.org/2000/svg">
  <defs
     id="defs1" />
  <g
     id="g5-0-3"
     style="display:inline;opacity:0.322;fill:#999999"
     transform="matrix(0.15938109,0,0,0.14895312,1.8581923,3.084317)">
		<g
   id="g4-6-4"
   style="fill:#999999">
			<path
   d="M 147.825,23.273 C 133.898,8.265 114.527,0 93.281,0 H 87.515 C 44.73,0 9.766,34.041 8.222,76.465 8.205,76.605 8.148,76.733 8.148,76.877 v 2.509 35.298 0.694 c 0,0.07 0.036,0.133 0.041,0.203 0.215,19.012 7.194,37.295 19.771,51.562 0.673,0.766 1.636,1.186 2.625,1.186 0.308,0 0.617,-0.041 0.923,-0.123 l 127.589,-34.857 c 1.189,-0.325 2.119,-1.254 2.449,-2.441 1.432,-5.158 2.358,-10.463 2.755,-15.764 l 2.673,-35.701 C 168.562,58.239 161.76,38.291 147.825,23.273 Z M 15.149,79.84 88.051,67.665 c 5.932,-0.988 10.652,0.103 12.941,2.997 2.287,2.895 2.259,7.735 -0.075,13.279 l -11.412,27.094 -74.356,0.804 V 79.84 Z m 144.846,-0.916 -2.673,35.701 c -0.314,4.194 -0.991,8.391 -2.017,12.503 L 31.802,160.867 C 21.933,148.973 16.214,134.245 15.329,118.838 l 76.547,-0.825 c 1.394,-0.014 2.647,-0.858 3.187,-2.143 l 12.303,-29.21 c 3.406,-8.084 3.093,-15.306 -0.882,-20.337 C 102.509,61.292 95.55,59.32 86.899,60.762 L 15.487,72.687 C 18.881,35.905 49.872,7 87.515,7 h 5.766 c 19.277,0 36.825,7.472 49.414,21.034 12.595,13.573 18.739,31.647 17.3,50.89 z"
   id="path1-13-9"
   style="fill:#999999" />

			<path
   d="m 130.648,77 c -7.72,0 -14,6.279 -14,14 0,7.721 6.28,14 14,14 7.72,0 14,-6.279 14,-14 0,-7.721 -6.281,-14 -14,-14 z m 0,21 c -3.86,0 -7,-3.141 -7,-7 0,-3.859 3.139,-7 7,-7 3.861,0 7,3.141 7,7 0,3.859 -3.14,7 -7,7 z"
   id="path2-8-6"
   style="fill:#999999" />

			<path
   d="m 94.623,74.526 c -1.367,-1.367 -3.582,-1.367 -4.949,0 l -10.5,10.5 c -1.367,1.367 -1.367,3.582 0,4.949 0.683,0.683 1.578,1.025 2.474,1.025 0.896,0 1.791,-0.342 2.475,-1.025 l 10.5,-10.5 c 1.367,-1.367 1.367,-3.582 0,-4.949 z"
   id="path3-9-5"
   style="fill:#999999" />

			<path
   d="M 153.598,138.093 42.341,168.472 c -1.866,0.509 -2.965,2.434 -2.456,4.3 0.426,1.555 1.835,2.577 3.375,2.577 0.304,0 0.615,-0.041 0.923,-0.123 L 155.44,144.847 c 1.866,-0.509 2.965,-2.434 2.456,-4.3 -0.511,-1.863 -2.442,-2.96 -4.298,-2.454 z"
   id="path4-3-1"
   style="fill:#999999" />

		</g>

	</g>
</svg>
