<?xml version="1.0" encoding="UTF-8" standalone="no"?>
<!-- Created with Inkscape (http://www.inkscape.org/) -->

<svg
   width="32"
   height="32"
   viewBox="0 0 32 32"
   version="1.1"
   id="svg1"
   xmlns="http://www.w3.org/2000/svg"
   xmlns:svg="http://www.w3.org/2000/svg">
  <defs
     id="defs1" />
  <path
     d="M 15.702272,3.316499 C 12.737646,3.2625366 8.6188283,3.3417281 7.7711402,6.1719383 L 5.6878109,12.2466 A 0.72550137,0.90151871 0 0 0 5.3390213,11.973005 L 4.4999884,11.679786 a 0.72804704,0.90468195 0 0 0 -0.899619,0.627224 l -0.4378531,1.930834 a 0.72804704,0.90468195 0 0 0 0.5048121,1.118197 l 0.8392913,0.293218 c 0.027989,0.0091 0.055979,0.01262 0.083968,0.01893 -0.1603285,0.496313 -0.260444,1.042292 -0.260444,1.367146 v 7.060321 c 0,0.362179 0.1221481,0.529531 0.3164225,0.607952 v 1.881175 a 1.0202841,1.2678199 0 0 0 1.0225709,1.270539 h 2.7429077 a 1.0202841,1.2678199 0 0 0 1.0226214,-1.27076 v -1.81222 H 22.29106 v 1.812216 a 1.0207932,1.2684526 0 0 0 1.022829,1.270665 h 2.742901 a 1.0207932,1.2684526 0 0 0 1.023088,-1.270665 v -1.881169 c 0.194201,-0.07842 0.315704,-0.245773 0.315704,-0.607951 v -7.060343 c 0,-0.324895 -0.09997,-0.870832 -0.260157,-1.367138 0.02799,-0.0056 0.05598,-0.0084 0.08397,-0.01962 l 0.839299,-0.292938 a 0.72804704,0.90468195 0 0 0 0.504524,-1.118191 l -0.437063,-1.930694 a 0.72830159,0.90499815 0 0 0 -0.900128,-0.627153 l -0.838782,0.293219 a 0.72677425,0.90310029 0 0 0 -0.34879,0.273595 L 23.954916,6.1715669 C 23.046132,3.2980957 18.666892,3.3702159 15.702022,3.3161204 Z m 8.491672,9.313795 c 0.04952,0.18221 -0.09825,0.30366 -0.252764,0.314733 0,0 -0.505028,0.05326 -1.201531,0.123061 -0.530002,-1.538597 -1.761567,-2.622945 -3.188389,-2.622945 -1.565815,0 -2.895134,1.306406 -3.321533,3.085409 -0.118057,0.0019 -0.255349,0.0077 -0.365297,0.0077 -2.697335,0 -8.0792808,-0.593725 -8.0792808,-0.593725 C 7.6306339,12.932657 7.4830084,12.811974 7.5323125,12.629834 9.6049561,4.7784035 9.6668195,5.36866 15.748304,5.4512223 c 6.081737,0.082205 6.117118,-0.4785825 8.445597,7.1786117 z m -4.642691,-0.701286 a 2.262037,2.8108403 0 0 1 1.895721,1.262451 c -1.218086,0.11262 -2.619955,0.227412 -3.926366,0.2942 a 2.260255,2.8086264 0 0 1 2.030645,-1.556624 z M 5.5297289,14.477297 c 0.01866,0.03364 0.035884,0.06728 0.055979,0.100284 h -0.078945 z m 1.3476414,1.971957 c 0.5335908,-0.01051 3.3978997,1.187156 3.3978997,1.187156 0.357617,0.124955 0.672533,0.965098 0.670738,1.426932 -0.0052,1.555362 -3.2354753,1.015402 -4.5464795,1.021723 A 0.66949781,0.83192781 0 0 1 5.7287901,19.251874 v -1.969113 c 0,-0.461833 0.6150468,-0.822427 1.148573,-0.833507 z m 17.9715667,0 c 0.53359,0.01051 1.148587,0.371639 1.148587,0.833507 v 1.969113 a 0.66949781,0.83192781 0 0 1 -0.67081,0.833513 c -1.31099,-0.0066 -4.541133,0.533317 -4.546474,-1.02173 -0.0016,-0.461763 0.313122,-1.302299 0.670739,-1.427247 0,0 2.864316,-1.198221 3.397886,-1.187156 z"
     fill="#000000"
     id="path1-0"
     style="display:inline;opacity:0.322;fill:#cccccc;stroke-width:0.283765" />
</svg>
