<?xml version="1.0" encoding="UTF-8" standalone="no"?>
<!-- Generated by IcoMoon.io -->

<svg
   version="1.1"
   viewBox="0 0 100 63"
   id="svg1"
   xml:space="preserve"
   width="100"
   height="63"
   xmlns="http://www.w3.org/2000/svg"
   xmlns:svg="http://www.w3.org/2000/svg"
   xmlns:rdf="http://www.w3.org/1999/02/22-rdf-syntax-ns#"
   xmlns:cc="http://creativecommons.org/ns#"
   xmlns:dc="http://purl.org/dc/elements/1.1/"><defs
     id="defs1" /><path
     d="M 46.091503,28.792879 1.664984,44.625241 31.83233,52.49068 69.662778,33.055443 Z m 25.511295,4.567032 -22.504267,12.026502 23.765286,9.99671 25.8993,-17.050229 z m -23.862279,12.787673 -13.580156,6.901288 30.16735,7.865433 7.275085,-4.465535 z"
     fill="#000000"
     id="path1"
     style="fill:#00aad4;stroke-width:2.19248" /><metadata
     id="metadata1"><rdf:RDF><cc:Work><dc:format>image/svg+xml</dc:format><dc:type
           rdf:resource="http://purl.org/dc/dcmitype/StillImage" /><cc:license
           rdf:resource="http://creativecommons.org/publicdomain/zero/1.0/" /><dc:publisher><cc:Agent
             rdf:about="http://openclipart.org/"><dc:title>Openclipart</dc:title></cc:Agent></dc:publisher></cc:Work><cc:License
         rdf:about="http://creativecommons.org/publicdomain/zero/1.0/"><cc:permits
           rdf:resource="http://creativecommons.org/ns#Reproduction" /><cc:permits
           rdf:resource="http://creativecommons.org/ns#Distribution" /><cc:permits
           rdf:resource="http://creativecommons.org/ns#DerivativeWorks" /></cc:License></rdf:RDF></metadata><path
     d="m 41.45519,2.399781 c -7.469735,0 -13.52582,5.591344 -13.52582,12.487871 0,6.896534 13.52582,32.057591 13.52582,32.057591 0,0 13.525828,-25.160613 13.525828,-32.057591 0,-6.896971 -6.055584,-12.487871 -13.525828,-12.487871 z m 0,18.030667 c -3.315109,0 -6.002999,-2.482074 -6.002999,-5.542347 0,-3.061161 2.68789,-5.542344 6.002999,-5.542344 3.315596,0 6.003018,2.481183 6.003018,5.542344 4.77e-4,3.060273 -2.687422,5.542347 -6.003018,5.542347 z"
     id="path1-4"
     style="display:inline;fill:#2a7fff;stroke-width:0.463598" /></svg>
