<svg xmlns="http://www.w3.org/2000/svg" viewBox="-20 -20 340 340" width="340" height="340">
<g class="icono-silueta" transform="translate(265,205) scale(0.60) translate(-150,-150)" fill="navy">
<path d="m 28.241822,118.24999 -1.857418,5.40252 -0.280364,0.46119 -0.245317,0.29648 c -2.287354,0.55857 -4.646594,0.8136 -7.009128,0.75767 2.172125,-5.95557 2.90248,-12.29182 2.137785,-18.54649 v 0 c -0.1493,-1.72948 0.658307,-3.40952 2.137782,-4.44721 3.944709,-2.819647 6.859463,-6.722164 8.340861,-11.167429 l 1.156504,-8.597934 c -0.08817,-1.172228 -0.311431,-2.331998 -0.665867,-3.458937 0,-0.395308 -0.280364,-0.691788 -0.385501,-0.955327 H 30.659972 C 27.83595,77.838134 25.626995,75.6464 25.613402,72.987298 25.788629,56.7797 23.966258,46.633477 20.812152,39.616774 15.485215,31.150611 7.2494934,26.868114 -2.5632802,22.256197 -4.2805171,21.56441 -6.067842,20.806737 -7.8201224,19.950236 -39.816783,51.377167 -66.311276,10.956996 -104.26569,71.834319 h -1.29669 c -0.49064,1.054152 -1.01632,2.108306 -1.50697,3.294228 l -0.28036,0.527075 c -1.48069,2.410615 -4.75997,3.236539 -7.32454,1.844768 -0.86445,-0.461192 -1.3551,-0.658846 -1.47192,-0.592963 -0.21026,0 -0.45559,0.527077 -0.771,1.218866 -0.68249,1.607486 -1.07341,3.31116 -1.1565,5.040168 -0.38551,7.115529 2.06769,16.471139 7.00913,20.984229 1.02154,0.91153 1.61435,2.16825 1.64714,3.49187 0.56073,21.74191 10.8291,30.04336 23.305342,40.15664 l 5.256845,4.28249 c 12.511288,10.47564 25.723493,15.87818 38.55019,15.87818 12.8267,0 25.197807,-5.07311 36.832956,-15.61465 h 8.4810408 0.911187 6.3432572 l -2.8386966,2.53657 -5.1867516,4.61191 c -31.5835558,28.27779 -65.1852268,20.99018 -90.1023088,0.16471 l -5.11666,-4.21661 c -12.301021,-9.88267 -22.744621,-18.41472 -26.003861,-36.92828 l -16.892,1.28475 c -6.73317,0.93397 -13.03064,-3.34855 -14.19347,-9.65208 l -6.55355,-48.688689 c -0.73268,-6.492547 4.33212,-12.291548 11.24965,-12.880427 l 5.50218,-0.42825 c -0.3293,-0.673993 -0.51958,-1.40059 -0.56073,-2.14125 -3.2943,-50.5663877 19.90591,-82.355684 51.271755,-97.607956 32.602677,-15.17485 71.260452,-13.289937 102.01782,4.974282 28.667324,17.36058 47.381681,49.1169314 38.97073,93.292521 -0.136024,0.613985 -0.347733,1.210974 -0.630822,1.778883 l 8.375907,0.889442 c 7.459753,0.720895 12.825187,7.073514 11.880467,14.066351 l -6.48344,46.316843 c -1.153829,6.93619 -7.978745,11.74402 -15.385032,10.838 v 0 c -0.954292,3.498 -2.124458,6.94081 -3.504555,10.31093 -1.190639,2.86223 -2.977936,5.47186 -5.256846,7.67555 -7.009126,6.7861 -29.648601,6.7861 -37.6740492,6.7861 H -17.878219 c -4.885252,4.51469 -11.556318,6.90353 -18.398954,6.58846 -11.63515,0 -21.027379,-5.79784 -21.027379,-12.94631 0,-7.14847 9.392229,-12.94632 21.027379,-12.94632 6.605054,-0.12789 12.990191,2.2326 17.733087,6.55551 H 3.0089738 c 6.3082116,0 25.0225752,0 28.2467752,-3.06362 0.973641,-0.94667 1.736212,-2.06668 2.242921,-3.29423 l 2.383103,-6.98376 -7.639951,-0.82355 z M -125.0828,27.724612 c 11.91551,-52.246446 76.714884,-84.826354 138.219958,-51.653484 5.534839,2.985041 10.576204,6.713928 14.964484,11.068604 C 22.162179,-22.19761 13.975989,-30.095575 4.2005248,-35.919861 -8.4962703,-43.513116 -23.07032,-47.882832 -38.099547,-48.602635 c -15.036741,-0.876082 -30.0527,1.999141 -43.526669,8.334395 -23.060024,11.068604 -40.933294,33.3375823 -43.456584,67.992852 z"/>
  </g>
</svg>