<?xml version="1.0" encoding="UTF-8" standalone="no"?>
<svg
   width="100"
   height="100"
   viewBox="0 0 50 50"
   version="1.1"
   id="svg1"
   xmlns="http://www.w3.org/2000/svg"
   xmlns:svg="http://www.w3.org/2000/svg">
  <defs
     id="defs1" />
  <!-- 1. Anillo exterior (subpaths 1 y 2) -->
  <path
     id="anillo"
     fill="#ff0000"
     d="m 24.847609,3.005804 c -13.193597,0 -23.8662567,10.065084 -23.8662567,22.507595 0,12.442509 10.6726597,22.507591 23.8662567,22.507591 13.193599,0 23.866257,-10.065082 23.866257,-22.507591 0,-12.442511 -10.672658,-22.507595 -23.866257,-22.507595 z m 0,2.9230765 c 11.45787,0 20.766744,8.7789355 20.766744,19.5845185 0,10.805594 -9.308874,19.584529 -20.766744,19.584529 -11.457869,0 -20.7667421,-8.778935 -20.7667421,-19.584529 0,-10.805583 9.3088731,-19.5845185 20.7667421,-19.5845185 z"
     style="fill:#2a7fff" />
  <!-- 2. Volante + círculo interior (subpaths 3, 4 y 5) -->
  <path
     id="volante"
     fill="#0000ff"
     d="M 6.7175207,20.43702 C 6.2308963,22.307776 4.61063,25.800777 6.1935268,26.288744 20.75598,30.77798 18.493607,31.778495 21.23151,43.022554 c 1.177817,0.204617 2.376294,0.321539 3.616099,0.321539 1.239808,0 2.438285,-0.116905 3.616099,-0.321539 2.703313,-11.10199 1.058297,-14.373597 15.406735,-17.296299 0.308393,-0.06282 0.551996,-0.368216 0.51349,-0.68116 -0.202296,-1.644087 -0.987228,-3.244972 -1.404167,-4.608075 -8.761293,-2.065644 -13.472554,-3.108191 -18.132157,-3.108191 -4.6596,0 -9.370862,1.042547 -18.1300883,3.108191 z M 24.847609,18.400613 c 4.153349,0 7.54215,3.195875 7.54215,7.112786 0,3.916908 -3.388801,7.112798 -7.54215,7.112798 -4.153348,0 -7.542149,-3.19589 -7.542149,-7.112798 0,-3.916911 3.388801,-7.112786 7.542149,-7.112786 z m 0,1.753836 c -3.151171,0 -5.682439,2.387171 -5.682439,5.35895 0,2.971777 2.531268,5.358948 5.682439,5.358948 3.151174,0 5.682443,-2.387171 5.682443,-5.358948 0,-2.971779 -2.531269,-5.35895 -5.682443,-5.35895 z"
     style="fill:#00aad4" />
</svg>
