<?xml version="1.0" encoding="UTF-8" standalone="no"?>
<svg
   version="1.0"
   viewBox="0 0 100 100"
   id="svg2"
   width="100"
   height="100"
   xmlns="http://www.w3.org/2000/svg"
   xmlns:svg="http://www.w3.org/2000/svg">
  <defs
     id="defs2" />
  <path
     d="M 28.841125,3.9430341 C 28.663322,4.0164004 3.0268964,34.797912 2.797206,35.205489 c -0.1778025,0.309789 -0.1778025,0.668461 0,0.986383 0.1703199,0.301634 2.5414061,3.016207 2.8229626,3.228139 0.237107,0.187514 0.7261075,0.187514 0.9706293,0 0.1036437,-0.07325 5.2384341,-6.097585 11.4030241,-13.385375 6.164589,-7.287792 11.247424,-13.24681 11.291875,-13.238658 0.08142,0.008 28.777981,24.40674 29.141046,24.781721 0.103643,0.105961 0.311198,0.219992 0.459381,0.244552 0.148095,0.03271 8.59487,0.04077 18.775348,0.0072 17.752854,-0.04077 18.523434,-0.04884 18.664201,-0.195574 0.237107,-0.236349 0.326007,-0.480971 0.763163,-2.176565 0.444572,-1.703727 0.459382,-1.883086 0.16306,-2.241758 -0.08891,-0.09791 -4.415989,-3.619431 -9.609951,-7.817666 C 82.447963,21.199652 76.031458,16.00691 73.378902,13.862966 70.474432,11.515224 68.459082,9.9419139 68.303483,9.8929989 68.162649,9.8522479 67.495847,9.7462589 66.821607,9.6484449 66.147344,9.5506089 64.917405,9.3631289 64.080129,9.2408468 60.671827,8.7109782 59.249232,8.4908772 56.670769,8.0995889 55.181477,7.879478 53.751489,7.6512345 53.484742,7.6104752 53.217994,7.5697246 51.802816,7.3496116 50.335748,7.1213604 48.868704,6.9012507 43.482087,6.0779202 38.362217,5.2871869 33.242348,4.5046048 29.04124,3.8606085 29.026409,3.8687586 c -0.0154,0 -0.103644,0.032616 -0.185284,0.073366 z"
     id="path1"
     style="fill:#2a7fff;stroke-width:0.0777176" />
  <path
     d="m 28.729999,19.537582 c -0.148096,0.06519 -0.38529,0.187515 -0.526079,0.285324 -0.148096,0.09791 -4.208523,4.785151 -9.032004,10.409943 -7.453832,8.689905 -8.809751,10.31213 -9.032026,10.768635 L 9.8805581,41.54767 9.8583317,58.878577 c -0.015403,12.586506 0,17.46131 0.059192,17.820007 0.05194,0.269015 0.1630593,0.635818 0.2593323,0.823333 0.20751,0.383136 0.696488,0.896702 0.985438,1.027132 0.474214,0.203872 8.439271,3.456405 9.276548,3.790612 0.792783,0.30979 0.985438,0.350541 1.341088,0.326099 0.829861,-0.07349 1.607833,-0.668484 1.963482,-1.483639 l 0.177803,-0.407624 v -4.320488 c 0,-2.380366 -0.03697,-10.075711 -0.08142,-17.102641 -0.04445,-7.035061 -0.06668,-12.798461 -0.04445,-12.822902 0.0154,-0.02442 2.459898,-0.0166 5.423652,0.0166 l 5.386617,0.05714 -0.0592,18.920486 c -0.03697,10.409965 -0.06668,19.197682 -0.0592,19.531936 0.0065,0.774403 0.118609,1.206468 0.422325,1.638511 0.52608,0.75814 0.340838,0.668485 5.853413,2.755346 0.60015,0.22829 1.570778,0.595069 2.163534,0.823334 0.592732,0.219991 1.555967,0.58696 2.148699,0.815177 2.637746,1.002669 3.349044,1.271685 6.001598,2.290687 3.556509,1.369543 3.208253,1.336923 5.705208,0.464661 1.652308,-0.578782 4.482687,-1.55701 12.262505,-4.238963 1.689341,-0.578805 3.912157,-1.345054 4.927236,-1.695618 1.022495,-0.350494 3.237894,-1.11679 4.927236,-1.695549 1.689342,-0.58696 4.741995,-1.638558 6.77957,-2.339613 2.037575,-0.701058 4.771636,-1.64669 6.068272,-2.095042 1.304053,-0.448352 2.489563,-0.880393 2.63033,-0.961942 0.37048,-0.203872 0.785389,-0.684747 0.985438,-1.133099 l 0.170321,-0.374981 0.02223,-16.132567 0.0154,-16.124414 -0.192766,-0.48097 c -0.214771,-0.521722 -0.577924,-0.937453 -1.081755,-1.230933 -0.318615,-0.187515 -0.348256,-0.187515 -2.726647,-0.171157 -1.326278,0.0072 -3.904741,0.04884 -5.742266,0.09791 -4.697545,0.130382 -14.203762,0.366849 -19.301406,0.497279 -1.815299,0.04077 -3.978832,0.09791 -4.816087,0.130384 l -1.51892,0.04076 L 45.483089,32.931562 C 37.392028,25.782381 30.612458,19.831512 30.412386,19.709213 29.967837,19.440222 29.160223,19.358697 28.73046,19.538056 Z m 52.399057,38.387184 c 0.607566,0.228287 1.104004,0.782605 1.318862,1.451043 0.06668,0.203872 0.103644,1.605939 0.133352,5.013415 0.03697,4.687362 0.03697,4.728112 -0.118607,5.184595 -0.08891,0.252706 -0.281557,0.595067 -0.429763,0.766272 -0.28895,0.334254 -0.918763,0.692927 -1.20032,0.692927 -0.09638,0 -1.726376,0.423886 -3.630577,0.937452 -3.341627,0.913013 -3.467585,0.937454 -3.823232,0.847799 -0.666848,-0.179455 -1.163286,-0.635843 -1.459652,-1.3369 L 71.748798,71.073768 V 59.579634 l 0.170321,-0.366851 c 0.237106,-0.489102 0.540888,-0.831487 0.963214,-1.067883 0.333422,-0.187515 0.42974,-0.195576 2.200588,-0.236349 3.652825,-0.0896 5.7793,-0.0896 6.046049,0.0166 z"
     id="path2"
     style="fill:#00aad4;stroke-width:0.0777176" />
</svg>
