<svg xmlns="http://www.w3.org/2000/svg" version="1.0" viewBox="0 0 1280 1112">
  <path d="M353.4 1C351 1.9 5 379.5 1.9 384.5c-2.4 3.8-2.4 8.2 0 12.1 2.3 3.7 34.3 37 38.1 39.6 3.2 2.3 9.8 2.3 13.1 0 1.4-.9 70.7-74.8 153.9-164.2 83.2-89.4 151.8-162.5 152.4-162.4 1.1.1 388.4 299.4 393.3 304 1.4 1.3 4.2 2.7 6.2 3 2 .4 116 .5 253.4.1 239.6-.5 250-.6 251.9-2.4 3.2-2.9 4.4-5.9 10.3-26.7 6-20.9 6.2-23.1 2.2-27.5-1.2-1.2-59.6-44.4-129.7-95.9-70.1-51.5-156.7-115.2-192.5-141.5C915.3 93.9 888.1 74.6 886 74c-1.9-.5-10.9-1.8-20-3s-25.7-3.5-37-5c-46-6.5-65.2-9.2-100-14-20.1-2.7-39.4-5.5-43-6-3.6-.5-22.7-3.2-42.5-6-19.8-2.7-92.5-12.8-161.6-22.5C412.8 7.9 356.1 0 355.9.1c-.2 0-1.4.4-2.5.9z"/>
  <path d="M351.9 192.3c-2 .8-5.2 2.3-7.1 3.5-2 1.2-56.8 58.7-121.9 127.7C122.3 430.1 104 450 101 455.6l-3.5 6.7-.3 212.6c-.2 154.4 0 214.2.8 218.6.7 3.3 2.2 7.8 3.5 10.1 2.8 4.7 9.4 11 13.3 12.6 6.4 2.5 113.9 42.4 125.2 46.5 10.7 3.8 13.3 4.3 18.1 4 11.2-.9 21.7-8.2 26.5-18.2l2.4-5v-53c0-29.2-.5-123.6-1.1-209.8-.6-86.3-.9-157-.6-157.3.2-.3 33.2-.2 73.2.2l72.7.7-.8 232.1c-.5 127.7-.9 235.5-.8 239.6.1 9.5 1.6 14.8 5.7 20.1 7.1 9.3 4.6 8.2 79 33.8 8.1 2.8 21.2 7.3 29.2 10.1 8 2.7 21 7.2 29 10 35.6 12.3 45.2 15.6 81 28.1 48 16.8 43.3 16.4 77 5.7 22.3-7.1 60.5-19.1 165.5-52 22.8-7.1 52.8-16.5 66.5-20.8 13.8-4.3 43.7-13.7 66.5-20.8 22.8-7.2 64-20.1 91.5-28.7 27.5-8.6 64.4-20.2 81.9-25.7 17.6-5.5 33.6-10.8 35.5-11.8 5-2.5 10.6-8.4 13.3-13.9l2.3-4.6.3-197.9.2-197.8-2.6-5.9c-2.9-6.4-7.8-11.5-14.6-15.1-4.3-2.3-4.7-2.3-36.8-2.1-17.9.1-52.7.6-77.5 1.2-63.4 1.6-191.7 4.5-260.5 6.1-24.5.5-53.7 1.2-65 1.6l-20.5.5L578 356.6c-109.2-87.7-200.7-160.7-203.4-162.2-6-3.3-16.9-4.3-22.7-2.1zm707.2 470.9c8.2 2.8 14.9 9.6 17.8 17.8.9 2.5 1.4 19.7 1.8 61.5.5 57.5.5 58-1.6 63.6-1.2 3.1-3.8 7.3-5.8 9.4-3.9 4.1-12.4 8.5-16.2 8.5-1.3 0-23.3 5.2-49 11.5-45.1 11.2-46.8 11.5-51.6 10.4-9-2.2-15.7-7.8-19.7-16.4l-2.3-5v-141l2.3-4.5c3.2-6 7.3-10.2 13-13.1 4.5-2.3 5.8-2.4 29.7-2.9 49.3-1.1 78-1.1 81.6.2z"/>
</svg>
