<?xml version="1.0" encoding="UTF-8" standalone="no"?>
<svg
   width="700"
   height="200"
   viewBox="0 0 21 6"
   fill="none"
   version="1.1"
   id="svg2"
   xml:space="preserve"
   xmlns="http://www.w3.org/2000/svg"
   xmlns:svg="http://www.w3.org/2000/svg"><defs
     id="defs2" /><path
     opacity="0.4"
     d="M 20.231565,1.439218 V 2.118053 L 16.293557,4.3983558 15.497475,3.9274738 C 15.300733,3.8103507 15.140299,3.5593729 15.140299,3.3657615 V 1.439218 c 0,-0.2677096 0.260315,-0.5641026 0.578143,-0.6573228 L 17.374153,0.291891 c 0.172528,-0.050196 0.451012,-0.050196 0.623548,0 l 1.655722,0.4900042 c 0.317827,0.09322 0.578142,0.3896132 0.578142,0.6573228 z"
     fill="#292d32"
     id="path1"
     style="opacity:1;fill:#ff6600;stroke-width:0.268982" /><path
     d="m 20.231716,2.4455098 v 0.9202517 c 0,0.1936114 -0.160412,0.4445892 -0.357177,0.5617123 l -1.655723,0.9776181 c -0.145301,0.08605 -0.339016,0.1290746 -0.532739,0.1290746 -0.193726,0 -0.387445,-0.043024 -0.532737,-0.1290746 L 16.572173,4.563284 Z"
     fill="#292d32"
     id="path2"
     style="display:inline;fill:#ff9955;stroke-width:0.268982" /><g
     id="text2"
     style="font-size:4.71227px;font-family:'Exo 2';-inkscape-font-specification:'Exo 2, Normal';text-align:center;text-anchor:middle;display:inline;opacity:1;fill:#ffffff;stroke-width:0;stroke-linecap:round;stroke-linejoin:round;stroke-miterlimit:5.4;paint-order:markers stroke fill"
     transform="matrix(1.1129778,0,0,1.3466894,-6.436802,-3.3266105)"
     aria-label="Vitriz"><path
       style="-inkscape-font-specification:'Exo 2, @wght=900';fill:#ffffff"
       d="M 9.1450362,2.9790188 8.3533749,5.9571733 q -0.028274,0.122519 -0.122519,0.1979153 -0.094245,0.075396 -0.226189,0.075396 H 7.1093357 q -0.1319436,0 -0.226189,-0.075396 -0.094245,-0.075396 -0.122519,-0.1979153 L 5.9689664,2.9790188 h 1.0508362 l 0.419392,2.1158091 q 0.018849,0.089533 0.032986,0.1884908 0.014137,0.094245 0.028274,0.1837786 H 7.613549 Q 7.622969,5.3775643 7.63711,5.2833187 7.655959,5.1843607 7.674808,5.0948279 L 8.0942,2.9790188 Z"
       id="path4" /><path
       style="-inkscape-font-specification:'Exo 2, @wght=900';fill:#ffffff"
       d="M 10.341953,3.8743501 V 6.230485 H 9.3570887 V 3.8743501 Z M 10.059217,2.7952403 c 0.191632,0 0.287448,0.097387 0.287448,0.2921607 v 0.2403258 c 0,0.1947738 -0.09582,0.2921607 -0.287448,0.2921607 H 9.6398249 c -0.1916323,0 -0.2874485,-0.097387 -0.2874485,-0.2921607 V 3.087401 c 0,-0.1947738 0.095816,-0.2921607 0.2874485,-0.2921607 z m 1.941452,0.4618024 v 2.1158092 c 0,0.059689 0.01571,0.1036698 0.04712,0.1319435 0.03141,0.025132 0.08325,0.037698 0.155505,0.037698 h 0.24975 l 0.108383,0.6314441 c -0.06597,0.028273 -0.147653,0.050264 -0.245038,0.065972 -0.09739,0.018849 -0.196345,0.032986 -0.296873,0.04241 -0.09739,0.00942 -0.183779,0.014137 -0.259175,0.014137 -0.229331,0 -0.411539,-0.058118 -0.546624,-0.1743539 C 11.078634,6.0058667 11.011093,5.8440789 11.011093,5.636739 V 3.2570427 Z m 0.570185,0.6173074 v 0.593746 H 10.61055 V 3.8979114 l 0.452378,-0.023561 z m 1.031986,0 0.122519,0.4806515 0.09425,0.056547 V 6.230485 H 12.830028 V 3.8743501 Z m 1.145082,-0.065972 -0.08482,0.9047558 H 14.41335 c -0.08482,0 -0.180637,0.00471 -0.287448,0.014137 -0.10367,0.00628 -0.240326,0.023558 -0.409968,0.051835 l -0.05655,-0.5324865 c 0.153934,-0.1476511 0.31258,-0.2576041 0.475939,-0.3298589 0.163359,-0.072255 0.322006,-0.1083822 0.47594,-0.1083822 z m 1.215764,0.065972 V 6.230485 H 14.978821 V 3.8743501 Z m 1.456089,0.6314441 1.149793,0.00471 -1.097958,1.0885343 -1.149794,-0.00471 z m 1.178067,1.0885343 V 6.230485 H 16.321816 V 5.5943285 Z M 18.569568,3.8743501 V 4.5105065 H 16.350089 V 3.8743501 Z"
       id="path5" /></g><g
     transform="matrix(-4.5381062e-4,0,0,-8.4994067e-4,21.124316,5.087121)"
     fill="#000000"
     stroke="none"
     id="g18"
     style="display:inline;fill:#ffffff"><path
       d="m 6020,5041 c -58,-4 -115,-13 -127,-19 -45,-25 -37,-34 152,-182 50,-39 175,-148 279,-243 217,-198 243,-217 340,-249 65,-21 88,-23 286,-23 118,0 393,6 610,14 430,15 1361,10 1615,-8 77,-6 172,-13 210,-15 l 70,-6 -95,46 c -310,151 -1261,509 -1495,564 -127,30 -552,82 -910,110 -163,13 -794,21 -935,11 z"
       id="path2-2"
       style="fill:#ffffff" /><path
       d="m 5005,4930 c -200,-23 -450,-85 -680,-169 -128,-46 -175,-72 -175,-93 0,-4 38,-48 83,-98 95,-100 181,-222 252,-355 27,-49 49,-91 50,-93 2,-2 203,5 1393,52 183,7 334,15 337,17 5,6 -82,145 -142,226 -196,263 -457,440 -736,497 -96,20 -278,27 -382,16 z"
       id="path3-4"
       style="fill:#ffffff" /><path
       d="m 3815,4532 c -281,-144 -429,-265 -564,-460 -13,-18 -22,-35 -20,-37 2,-2 29,3 59,11 141,37 507,64 861,64 248,0 248,0 205,88 -51,103 -159,256 -237,335 -101,102 -104,102 -304,-1 z"
       id="path4-5"
       style="fill:#ffffff" /><path
       d="m 8470,4250 c -85,-4 -353,-13 -595,-19 -242,-7 -447,-14 -455,-15 -8,-2 44,-4 115,-5 522,-5 1279,-82 1930,-196 110,-19 270,-47 355,-61 189,-30 243,-46 340,-94 287,-144 582,-409 803,-720 23,-33 -158,332 -244,492 -70,129 -82,175 -54,198 32,26 457,60 763,60 165,0 387,-41 588,-110 48,-16 90,-28 92,-25 8,8 -225,114 -328,148 -394,132 -1086,240 -2125,332 -207,19 -937,28 -1185,15 z"
       id="path5-5"
       style="fill:#ffffff" /><path
       d="m 11205,3819 c -311,-13 -385,-22 -407,-49 -30,-37 -22,-82 35,-193 69,-132 180,-307 236,-369 24,-27 67,-61 95,-75 49,-26 59,-27 296,-34 271,-9 656,-27 767,-36 67,-5 73,-4 97,20 20,20 26,36 26,70 0,76 -99,390 -145,459 -53,80 -174,129 -458,188 -162,33 -183,34 -542,19 z"
       id="path6-1"
       style="fill:#ffffff" /><path
       d="m 9114,3806 c -43,-19 -101,-81 -107,-115 -18,-91 103,-260 234,-326 155,-79 352,-66 409,28 74,121 -60,296 -302,395 -76,31 -188,39 -234,18 z"
       id="path7-7"
       style="fill:#ffffff" /><path
       d="m 9435,3782 c 183,-97 284,-203 285,-296 0,-43 -36,-112 -78,-146 -42,-35 -37,-38 17,-10 75,38 112,108 96,182 -27,125 -141,230 -314,289 -82,28 -84,23 -6,-19 z"
       id="path8-1"
       style="fill:#ffffff" /><path
       d="m 9849,3806 c -155,-88 -14,-406 230,-521 252,-120 421,-19 340,202 -18,47 -39,75 -113,149 -74,74 -108,99 -179,134 -78,39 -97,44 -170,47 -59,3 -89,-1 -108,-11 z"
       id="path9-1"
       style="fill:#ffffff" /><path
       d="m 10230,3743 c 171,-137 257,-264 248,-365 -3,-29 -9,-62 -13,-73 -7,-18 -5,-17 18,4 15,13 34,43 43,66 13,35 14,49 4,86 -25,94 -128,194 -295,288 l -40,22 z"
       id="path10-5"
       style="fill:#ffffff" /><path
       d="m 12274,3585 c -12,-30 8,-86 86,-241 100,-201 159,-267 176,-198 14,56 -61,248 -140,359 -60,83 -109,115 -122,80 z"
       id="path11-2"
       style="fill:#ffffff" /><path
       d="m 7515,3414 c 164,-25 293,-109 386,-251 142,-218 192,-596 129,-983 -46,-279 -129,-471 -260,-600 -75,-74 -159,-121 -270,-149 l -75,-20 h 91 c 436,-3 711,363 731,974 8,253 -28,436 -126,640 -82,170 -187,283 -326,350 -90,43 -153,55 -273,54 l -97,-1 z"
       id="path12-7"
       style="fill:#ffffff" /><path
       d="m 8525,2330 c -6,-9 14,-481 21,-489 5,-6 241,-29 504,-50 723,-57 1400,-73 2070,-51 1026,34 1433,83 1597,193 88,59 103,135 48,254 l -25,55 -30,-25 c -159,-134 -1072,-215 -2005,-177 -431,17 -858,40 -939,50 -134,17 -232,73 -302,176 l -39,56 -52,-7 c -53,-6 -751,11 -810,20 -17,3 -34,1 -38,-5 z"
       id="path15"
       style="fill:#ffffff" /><path
       d="m 8302,2114 c -35,-240 -156,-465 -321,-597 -70,-55 -237,-147 -268,-147 -7,0 -13,-5 -13,-12 0,-8 53,-9 208,-5 243,8 378,21 429,42 52,22 293,238 293,262 0,6 -55,13 -122,17 -182,10 -168,-10 -174,246 -2,118 -8,230 -12,249 -7,30 -9,24 -20,-55 z"
       id="path16"
       style="fill:#ffffff" /><path
       d="m 2265,2065 c 216,-40 2020,-317 2085,-321 41,-2 471,-5 955,-7 787,-3 859,-2 680,9 -811,51 -1854,142 -3225,279 -245,25 -474,47 -510,50 l -65,4 z"
       id="path17"
       style="fill:#ffffff" /><path
       d="m 11750,1638 c -63,-4 -377,-9 -697,-11 -321,-1 -583,-5 -583,-8 0,-8 95,-90 163,-141 67,-50 207,-121 287,-146 161,-49 342,-49 520,-1 92,25 256,102 341,160 67,45 169,136 169,150 0,10 -37,10 -200,-3 z"
       id="path18"
       style="fill:#ffffff" /></g><g
     style="display:inline;fill:#ff6600"
     id="g5"
     transform="matrix(0.01436655,0,0,0.01454053,9.955738,0.0548434)"><path
       d="m 19.375,36.7818 v 63.8432 c 0,2.209 1.7909,4 4,4 h 63.8431 c 3.5637,0 5.3483,-4.309 2.8285,-6.8284 L 26.2034,33.9534 C 23.6836,31.4336 19.375,33.2182 19.375,36.7818 Z"
       fill="#ffffff"
       id="path1-1"
       style="fill:#ff6600" /></g><g
     style="display:inline;fill:#ff6600"
     id="g6"
     transform="matrix(-2.2871663e-5,0.01386447,0.01336308,2.3729821e-5,9.923094,0.1759574)"><path
       d="m 19.375,36.7818 v 63.8432 c 0,2.209 1.7909,4 4,4 h 63.8431 c 3.5637,0 5.3483,-4.309 2.8285,-6.8284 L 26.2034,33.9534 C 23.6836,31.4336 19.375,33.2182 19.375,36.7818 Z"
       fill="#ffffff"
       id="path6"
       style="fill:#ff6600" /></g></svg>
