<?xml version="1.0" encoding="UTF-8" standalone="no"?>
<svg
   width="700"
   height="200"
   viewBox="0 0 21 6"
   fill="none"
   version="1.1"
   id="svg2"
   xml:space="preserve"
   xmlns="http://www.w3.org/2000/svg"
   xmlns:svg="http://www.w3.org/2000/svg"><defs
     id="defs2" /><path
     opacity="0.4"
     d="M 20.231565,1.439218 V 2.118053 L 16.293557,4.3983558 15.497475,3.9274738 C 15.300733,3.8103507 15.140299,3.5593729 15.140299,3.3657615 V 1.439218 c 0,-0.2677096 0.260315,-0.5641026 0.578143,-0.6573228 L 17.374153,0.291891 c 0.172528,-0.050196 0.451012,-0.050196 0.623548,0 l 1.655722,0.4900042 c 0.317827,0.09322 0.578142,0.3896132 0.578142,0.6573228 z"
     fill="#292d32"
     id="path1"
     style="opacity:1;fill:#ff6600;stroke-width:0.268982" /><path
     d="m 20.231716,2.4455098 v 0.9202517 c 0,0.1936114 -0.160412,0.4445892 -0.357177,0.5617123 l -1.655723,0.9776181 c -0.145301,0.08605 -0.339016,0.1290746 -0.532739,0.1290746 -0.193726,0 -0.387445,-0.043024 -0.532737,-0.1290746 L 16.572173,4.563284 Z"
     fill="#292d32"
     id="path2"
     style="display:inline;fill:#ff9955;stroke-width:0.268982" /><g
     id="text2"
     style="font-size:4.71227px;font-family:'Exo 2';-inkscape-font-specification:'Exo 2, Normal';text-align:center;text-anchor:middle;display:inline;opacity:1;fill:#ffffff;stroke-width:0;stroke-linecap:round;stroke-linejoin:round;stroke-miterlimit:5.4;paint-order:markers stroke fill"
     transform="matrix(1.1129778,0,0,1.3466894,-6.436802,-3.3266105)"
     aria-label="Vitriz"><path
       style="-inkscape-font-specification:'Exo 2, @wght=900';fill:#ffffff"
       d="M 9.1450362,2.9790188 8.3533749,5.9571733 q -0.028274,0.122519 -0.122519,0.1979153 -0.094245,0.075396 -0.226189,0.075396 H 7.1093357 q -0.1319436,0 -0.226189,-0.075396 -0.094245,-0.075396 -0.122519,-0.1979153 L 5.9689664,2.9790188 h 1.0508362 l 0.419392,2.1158091 q 0.018849,0.089533 0.032986,0.1884908 0.014137,0.094245 0.028274,0.1837786 H 7.613549 Q 7.622969,5.3775643 7.63711,5.2833187 7.655959,5.1843607 7.674808,5.0948279 L 8.0942,2.9790188 Z"
       id="path4" /><path
       style="-inkscape-font-specification:'Exo 2, @wght=900';fill:#ffffff"
       d="M 10.341953,3.8743501 V 6.230485 H 9.3570887 V 3.8743501 Z M 10.059217,2.7952403 c 0.191632,0 0.287448,0.097387 0.287448,0.2921607 v 0.2403258 c 0,0.1947738 -0.09582,0.2921607 -0.287448,0.2921607 H 9.6398249 c -0.1916323,0 -0.2874485,-0.097387 -0.2874485,-0.2921607 V 3.087401 c 0,-0.1947738 0.095816,-0.2921607 0.2874485,-0.2921607 z m 1.941452,0.4618024 v 2.1158092 c 0,0.059689 0.01571,0.1036698 0.04712,0.1319435 0.03141,0.025132 0.08325,0.037698 0.155505,0.037698 h 0.24975 l 0.108383,0.6314441 c -0.06597,0.028273 -0.147653,0.050264 -0.245038,0.065972 -0.09739,0.018849 -0.196345,0.032986 -0.296873,0.04241 -0.09739,0.00942 -0.183779,0.014137 -0.259175,0.014137 -0.229331,0 -0.411539,-0.058118 -0.546624,-0.1743539 C 11.078634,6.0058667 11.011093,5.8440789 11.011093,5.636739 V 3.2570427 Z m 0.570185,0.6173074 v 0.593746 H 10.61055 V 3.8979114 l 0.452378,-0.023561 z m 1.031986,0 0.122519,0.4806515 0.09425,0.056547 V 6.230485 H 12.830028 V 3.8743501 Z m 1.145082,-0.065972 -0.08482,0.9047558 H 14.41335 c -0.08482,0 -0.180637,0.00471 -0.287448,0.014137 -0.10367,0.00628 -0.240326,0.023558 -0.409968,0.051835 l -0.05655,-0.5324865 c 0.153934,-0.1476511 0.31258,-0.2576041 0.475939,-0.3298589 0.163359,-0.072255 0.322006,-0.1083822 0.47594,-0.1083822 z m 1.215764,0.065972 V 6.230485 H 14.978821 V 3.8743501 Z m 1.456089,0.6314441 1.149793,0.00471 -1.097958,1.0885343 -1.149794,-0.00471 z m 1.178067,1.0885343 V 6.230485 H 16.321816 V 5.5943285 Z M 18.569568,3.8743501 V 4.5105065 H 16.350089 V 3.8743501 Z"
       id="path5" /></g><g
     style="display:inline;fill:#ff6600"
     id="g5"
     transform="matrix(0.01436655,0,0,0.01454053,9.955738,0.0548434)"><path
       d="m 19.375,36.7818 v 63.8432 c 0,2.209 1.7909,4 4,4 h 63.8431 c 3.5637,0 5.3483,-4.309 2.8285,-6.8284 L 26.2034,33.9534 C 23.6836,31.4336 19.375,33.2182 19.375,36.7818 Z"
       fill="#ffffff"
       id="path1-1"
       style="fill:#ff6600" /></g><g
     style="display:inline;fill:#ff6600"
     id="g6"
     transform="matrix(-2.2871663e-5,0.01386447,0.01336308,2.3729821e-5,9.923094,0.1759574)"><path
       d="m 19.375,36.7818 v 63.8432 c 0,2.209 1.7909,4 4,4 h 63.8431 c 3.5637,0 5.3483,-4.309 2.8285,-6.8284 L 26.2034,33.9534 C 23.6836,31.4336 19.375,33.2182 19.375,36.7818 Z"
       fill="#ffffff"
       id="path6"
       style="fill:#ff6600" /></g><path
     fill="#000000"
     d="m 17.653323,0.56923993 c -1.165407,0 -2.108136,0.87275277 -2.108136,1.95165417 0,1.0789015 0.942729,1.9516543 2.108136,1.9516543 1.165409,0 2.108138,-0.8727528 2.108138,-1.9516543 0,-1.0789014 -0.942729,-1.95165417 -2.108138,-1.95165417 z m 0,0.25346169 c 1.012089,0 1.834353,0.76122958 1.834353,1.69819248 0,0.9369631 -0.822264,1.6981928 -1.834353,1.6981928 -1.012087,0 -1.834353,-0.7612297 -1.834353,-1.6981928 0,-0.9369629 0.822266,-1.69819248 1.834353,-1.69819248 z M 16.051869,2.0807158 c -0.04297,0.1622153 -0.06862,0.3126027 -0.06862,0.4562311 1.320552,0.2559959 1.108827,0.5271999 1.350668,1.5021821 0.104036,0.017742 0.209902,0.027881 0.319415,0.027881 0.109517,0 0.215377,-0.010142 0.319416,-0.027881 0.241842,-0.9749822 0.03012,-1.2461862 1.350666,-1.5021821 -0.0056,-0.1596812 -0.02737,-0.324431 -0.06845,-0.4562311 -0.7739,-0.1791127 -1.190051,-0.2695141 -1.601641,-0.2695141 -0.411587,0 -0.82774,0.0904 -1.601454,0.2695141 z m 1.601454,-0.1765782 c 0.366872,0 0.666208,0.277118 0.666208,0.6167565 0,0.3396385 -0.299336,0.6167564 -0.666208,0.6167564 -0.36687,0 -0.666208,-0.2771179 -0.666208,-0.6167564 0,-0.3396385 0.299338,-0.6167565 0.666208,-0.6167565 z m 0,0.1520769 c -0.278346,0 -0.501937,0.2069938 -0.501937,0.4646796 0,0.2576858 0.223591,0.4646796 0.501937,0.4646796 0.278347,0 0.501938,-0.2069938 0.501938,-0.4646796 0,-0.2576858 -0.223591,-0.4646796 -0.501938,-0.4646796 z"
     id="path1-9"
     style="stroke-width:0.0087809;fill:#ffffff" /></svg>
